<?xml version="1.0" encoding="UTF-8"?>
<svg version="1.1" xmlns="http://www.w3.org/2000/svg" width="1024" height="1024">
<path d="M0 0 C0 0.66 0 1.32 0 2 C0.73605469 2.10699219 1.47210938 2.21398437 2.23046875 2.32421875 C5.21479547 3.05241131 6.84375463 4.01027203 9.3125 5.8125 C10.16714844 6.43253906 11.02179688 7.05257812 11.90234375 7.69140625 C12.92457031 8.45324219 13.94679688 9.21507813 15 10 C15.64598145 10.48065918 16.29196289 10.96131836 16.95751953 11.45654297 C21.09413207 14.53769197 25.22298231 17.62891516 29.33105469 20.74804688 C30.69339842 21.77000397 32.08157696 22.75744507 33.4765625 23.734375 C33.97929687 24.15203125 34.48203125 24.5696875 35 25 C35 25.66 35 26.32 35 27 C35.78890625 27.34224609 35.78890625 27.34224609 36.59375 27.69140625 C39.82139523 29.44670033 42.62873528 31.66412003 45.5 33.9375 C46.11439941 34.42186523 46.72879883 34.90623047 47.36181641 35.40527344 C52.56629952 39.5576012 57.48063295 43.97221549 62.33984375 48.51953125 C64.50565502 50.5390469 66.69534365 52.50428377 68.9375 54.4375 C81.76319843 65.6063648 93.7147769 77.61965643 105.6875 89.6875 C109.10521598 93.13176135 112.52621733 96.57271115 115.94921875 100.01171875 C116.72931808 100.80011642 117.50941742 101.5885141 118.31315613 102.40080261 C119.03183365 103.12278336 119.75051117 103.8447641 120.4909668 104.58862305 C121.43808784 105.54359932 121.43808784 105.54359932 122.40434265 106.51786804 C123.9484095 108.09130646 123.9484095 108.09130646 126 109 C126 109.66 126 110.32 126 111 C131.014953 110.48121176 135.208655 109.61707894 140 108 C148.217613 105.91959165 156.42959392 104.56433816 164.84521484 103.64648438 C168.54204242 103.26956154 168.54204242 103.26956154 172 102 C180.90209479 100.4480327 190.11188553 100.83617018 199.1171875 100.83203125 C200.78134183 100.82880809 202.44549589 100.82544327 204.10964966 100.82194519 C207.59101007 100.81598203 211.07234578 100.81410215 214.55371094 100.81469727 C218.08338581 100.81477821 221.61293005 100.80788329 225.14257812 100.79418945 C265.1774599 100.64103742 265.1774599 100.64103742 279 103 C279.33 103.33 279.66 103.66 280 104 C281.58155847 104.11207895 283.16571367 104.18734461 284.75 104.25 C291.93550669 104.76139312 298.73637046 106.48288841 305.70019531 108.27246094 C307.00682129 108.60358887 307.00682129 108.60358887 308.33984375 108.94140625 C309.11706787 109.14451416 309.89429199 109.34762207 310.69506836 109.55688477 C313.22105093 110.04249629 315.4340078 110.19336991 318 110 C320.59855375 108.22545161 320.59855375 108.22545161 323 105.8125 C323.825 105.03519531 324.65 104.25789063 325.5 103.45703125 C330.06678764 98.96873527 334.5705084 94.41833164 339.07803345 89.8706665 C342.38442006 86.5373699 345.69622226 83.20947582 349.00830078 79.88183594 C350.74384709 78.13625008 352.47759179 76.38887102 354.20947266 74.63964844 C371.3780048 57.30411359 371.3780048 57.30411359 379.83447266 50.69775391 C382.85650714 48.32850613 385.6068344 45.71849952 388.375 43.0625 C393.19059755 38.52627841 398.1944569 34.4043378 403.48266602 30.43334961 C406.36821648 28.26492337 409.14325781 26.05424454 411.8125 23.625 C429.21745726 8.09272802 452.7427964 -9.69163321 477.09765625 -9.33203125 C486.66246384 -8.23780696 492.7875113 -1.78419012 499 5 C499.52078125 5.49371094 500.0415625 5.98742187 500.578125 6.49609375 C520.1360465 27.18235687 525.46279414 65.99608709 526.60546875 93.06054688 C526.64285156 93.86685547 526.68023438 94.67316406 526.71875 95.50390625 C526.76418945 96.58393921 526.76418945 96.58393921 526.81054688 97.68579102 C526.96606503 100.07515697 526.96606503 100.07515697 527.50474548 102.69551754 C528.03672743 106.24505609 528.11989962 109.59687955 528.11352539 113.18592834 C528.11367425 113.88677612 528.11382311 114.5876239 528.11397648 115.30970949 C528.11328478 117.64668968 528.10545471 119.98359019 528.09765625 122.32055664 C528.09573585 124.00163224 528.09427263 125.68270842 528.0932312 127.36378479 C528.09007298 130.9814008 528.0838077 134.5989934 528.07516479 138.21660042 C528.06159837 143.95668992 528.05573764 149.69677173 528.05102539 155.43687439 C528.03898984 168.67755491 528.01704674 181.91821551 527.99479675 195.15888214 C527.97453658 207.25806248 527.95646603 219.35723557 527.94658184 231.45642942 C527.94245118 236.21728772 527.93620571 240.97812286 527.92483521 245.7389698 C527.79993004 269.18847321 527.79993004 269.18847321 528.40234375 292.62670898 C528.43609604 293.42695275 528.46984833 294.22719652 528.50462341 295.0516901 C528.84905181 301.31236133 530.27386833 306.39903856 533 312 C533.50789062 313.14210938 534.01578125 314.28421875 534.5390625 315.4609375 C538.05482869 323.31073298 541.99613038 330.91197312 546.10546875 338.46484375 C546.73740328 339.64300178 547.36890801 340.82139044 548 342 C548.33 342.59965576 548.66 343.19931152 549 343.81713867 C551.99168824 349.46337268 553.85519964 355.31130555 555.625 361.4375 C556.08338257 363.02159668 556.08338257 363.02159668 556.55102539 364.63769531 C559.00070301 373.41365375 560.48715415 381.9139198 561 391 C561.08701172 392.52173828 561.08701172 392.52173828 561.17578125 394.07421875 C561.40948593 403.09029911 560.15051672 412.07368687 559 421 C558.84015625 422.24652344 558.6803125 423.49304688 558.515625 424.77734375 C558.09192121 427.42549242 557.57428258 429.73332094 556.6875 432.25 C556.41808594 433.01570313 556.14867187 433.78140625 555.87109375 434.5703125 C555.43990234 435.77300781 555.43990234 435.77300781 555 437 C554.72285156 437.82242187 554.44570313 438.64484375 554.16015625 439.4921875 C548.42526772 456.08152169 540.27571977 472.27355973 530.4453125 486.796875 C529.16634926 488.74642977 528.00142705 490.710014 526.875 492.75 C525.12816746 495.77784306 523.20334436 498.29912627 521 501 C520.56300781 501.74378906 520.12601563 502.48757813 519.67578125 503.25390625 C517.73311266 506.43734685 515.5338734 509.37126599 513.25 512.3125 C512.80317871 512.88935547 512.35635742 513.46621094 511.89599609 514.06054688 C508.41751546 518.5216138 504.81535108 522.82200169 501 527 C500.55897949 527.49000488 500.11795898 527.98000977 499.66357422 528.48486328 C494.28745461 534.45694996 488.96303317 540.24663525 482.78125 545.40234375 C480.88448594 547.10360801 479.31371011 548.91510999 477.6875 550.875 C474.13893384 555.06214641 470.07013109 558.35262943 465.78125 561.7578125 C462.4199707 564.46760789 459.2405324 567.34429896 456.0703125 570.2734375 C454 572 454 572 451.4296875 573.5390625 C449.20381983 574.87744596 447.78676879 576.15590173 446 578 C444.56295694 579.07084676 443.10166448 580.10948655 441.625 581.125 C440.73941406 581.73601563 439.85382812 582.34703125 438.94140625 582.9765625 C437.97074219 583.64429688 437.00007812 584.31203125 436 585 C434.43572266 586.09441406 434.43572266 586.09441406 432.83984375 587.2109375 C426.00104393 591.9875009 419.07842506 596.58464675 412 601 C411.00613281 601.63679687 410.01226563 602.27359375 408.98828125 602.9296875 C401.15074596 607.88478361 393.10427237 612.09116921 384.76855469 616.13330078 C382.47149774 617.25899821 380.20703598 618.44499209 377.9375 619.625 C372.76529311 622.21981086 367.39627803 624.2914491 362.00390625 626.375 C358.90766919 627.5912089 355.91762258 628.97375697 352.91015625 630.39453125 C346.40314998 633.37730493 339.69561728 635.54189317 332.875 637.6875 C331.66457031 638.07744141 330.45414063 638.46738281 329.20703125 638.86914062 C323.5343238 640.67465415 317.91638048 642.39084135 312.06689453 643.51879883 C309.86125089 643.99456206 309.86125089 643.99456206 307.24584961 644.95214844 C303.56026991 646.14195724 299.85762421 646.90988475 296.05859375 647.62109375 C295.29563492 647.76652115 294.53267609 647.91194855 293.74659729 648.06178284 C292.12906408 648.36886177 290.51112838 648.67382726 288.89282227 648.97680664 C286.49561801 649.42659529 284.1003218 649.88560402 281.70507812 650.34570312 C276.81129795 651.27716556 271.90810033 652.14761785 267 653 C265.76766632 653.21979523 265.76766632 653.21979523 264.51043701 653.44403076 C250.8156363 655.84198165 237.43791579 656.41389162 223.54785156 656.28125 C220.21147589 656.24963495 216.87557441 656.24021317 213.5390625 656.234375 C211.38541094 656.22521835 209.23176412 656.21484689 207.078125 656.203125 C206.09676575 656.19887512 205.11540649 656.19462524 204.10430908 656.19024658 C189.07073683 656.03536842 189.07073683 656.03536842 185 654 C183.23178978 653.84217628 181.45999915 653.7236026 179.6875 653.625 C174.04002209 653.20093432 168.80322222 652.1025551 163.31640625 650.7421875 C160.05995963 650.01341853 156.87525523 649.57444876 153.5625 649.1875 C143.46275308 647.82964514 133.76119689 644.85591132 124 642 C122.79102051 641.65195313 122.79102051 641.65195313 121.55761719 641.296875 C107.32625856 637.16732007 93.68569633 631.65031398 80 626 C78.9677832 625.58097412 77.93556641 625.16194824 76.87207031 624.73022461 C70.95911454 622.31116126 65.23829102 619.73700176 59.625 616.6875 C58.91021484 616.30432617 58.19542969 615.92115234 57.45898438 615.52636719 C51.69842575 612.42118585 46.00637955 609.20171489 40.34375 605.921875 C38.54715808 604.88925441 36.74676366 603.86254843 34.92553711 602.87402344 C29.25408138 599.79341566 23.89919293 596.37592959 18.5625 592.75 C16.98111966 591.68132785 15.39911906 590.61357277 13.81640625 589.546875 C13.13006104 589.08120117 12.44371582 588.61552734 11.73657227 588.13574219 C9.9974254 586.95067639 9.9974254 586.95067639 8 586 C8 585.34 8 584.68 8 584 C6.68 583.67 5.36 583.34 4 583 C4 582.34 4 581.68 4 581 C3.29488281 580.7525 2.58976562 580.505 1.86328125 580.25 C-1.36887443 578.83896341 -3.96328902 577.0749274 -6.8125 575 C-7.78832031 574.29875 -8.76414062 573.5975 -9.76953125 572.875 C-10.50558594 572.25625 -11.24164063 571.6375 -12 571 C-12 570.34 -12 569.68 -12 569 C-12.598125 568.71125 -13.19625 568.4225 -13.8125 568.125 C-16 567 -16 567 -19 565 C-19 564.34 -19 563.68 -19 563 C-19.57878906 562.73832031 -20.15757812 562.47664062 -20.75390625 562.20703125 C-23.13570631 560.92707261 -24.92316646 559.48643946 -26.9375 557.6875 C-27.91009766 556.82705078 -27.91009766 556.82705078 -28.90234375 555.94921875 C-31.33131043 553.69213426 -33.66438903 551.35346732 -36 549 C-36.81339844 548.19820312 -37.62679687 547.39640625 -38.46484375 546.5703125 C-42.73451765 542.34785459 -46.87424245 538.11340906 -50.71875 533.5 C-51.85303231 532.17205974 -53.0775867 530.9224133 -54.3125 529.6875 C-60.94383287 523.05616713 -67.9498804 515.94054175 -73 508 C-73 507.01 -73 506.02 -73 505 C-73.99 504.67 -74.98 504.34 -76 504 C-76 503.01 -76 502.02 -76 501 C-76.99 500.67 -77.98 500.34 -79 500 C-79.495 498.515 -79.495 498.515 -80 497 C-80.66 496.67 -81.32 496.34 -82 496 C-83.01936943 494.00980253 -84.01462479 492.0072458 -85 490 C-85.7584121 488.78383202 -86.53024103 487.5759681 -87.3125 486.375 C-89.98192864 482.17223883 -92.15354797 477.78750684 -94.3359375 473.31640625 C-95.7947341 470.40908627 -97.33637976 467.56551453 -98.91772461 464.72363281 C-106.33755888 451.27307378 -111.29828194 437.56470361 -114.2734375 422.5 C-114.80931275 419.16797399 -114.80931275 419.16797399 -116 417 C-118.12393098 399.19568966 -117.68247915 380.13353563 -112 363 C-111.67902344 361.89205078 -111.67902344 361.89205078 -111.3515625 360.76171875 C-109.64614866 355.1137894 -107.10118587 350.01529509 -104.40625 344.77734375 C-103.35610473 342.70330684 -102.40213314 340.58006622 -101.5 338.4375 C-100.16868276 335.38656465 -98.68688992 332.58790695 -97.0625 329.6875 C-94.67349069 325.38728323 -92.72844028 321.10712076 -91.0546875 316.484375 C-90 314 -90 314 -87.99951172 310.80541992 C-85.87681225 307.10739809 -85.30898558 303.90607666 -84.953125 299.62890625 C-84.8920607 298.92524933 -84.8309964 298.22159241 -84.76808167 297.49661255 C-84.57560772 295.18632765 -84.41124202 292.87516018 -84.25 290.5625 C-84.18896088 289.76840729 -84.12792175 288.97431458 -84.06503296 288.15615845 C-82.58509608 268.7882469 -82.70044569 249.40958315 -83 230 C-83.66 230 -84.32 230 -85 230 C-85.19480482 150.66319761 -85.19480482 150.66319761 -84.68161011 115.83309937 C-84.64411073 113.25259644 -84.6096672 110.67204715 -84.57839966 108.09146118 C-84.53357765 104.52818409 -84.4760572 100.96535844 -84.4140625 97.40234375 C-84.39672813 95.87343002 -84.39672813 95.87343002 -84.37904358 94.31362915 C-84.24776186 87.9979301 -83.4005055 82.15126578 -82 76 C-81.67305738 74.34609641 -81.3508267 72.69124825 -81.03515625 71.03515625 C-77.59389998 53.36350928 -77.59389998 53.36350928 -75 45 C-74.64164063 43.82179687 -74.28328125 42.64359375 -73.9140625 41.4296875 C-71.34258812 33.21269607 -68.14048233 25.56413697 -64 18 C-63.57332031 17.16082031 -63.14664063 16.32164062 -62.70703125 15.45703125 C-57.35221476 5.5796718 -48.64853547 -4.0067992 -38 -8 C-24.81043051 -11.77977643 -11.79335106 -5.58632419 0 0 Z M459.4140625 57.390625 C458.82367187 58.00421875 458.23328125 58.6178125 457.625 59.25 C457.00367188 59.88679688 456.38234375 60.52359375 455.7421875 61.1796875 C454.40743948 62.57428969 453.07762644 63.97361654 451.75 65.375 C450 67 450 67 447 68 C447 68.66 447 69.32 447 70 C446.4225 70.061875 445.845 70.12375 445.25 70.1875 C442.08499218 71.33041949 441.07576472 73.34763397 439 76 C437.8329274 77.06450328 436.64271462 78.1038813 435.4375 79.125 C430.80714229 83.05906332 426.63539895 87.37604678 422.41796875 91.7421875 C420 94 420 94 417 95 C417 95.66 417 96.32 417 97 C416.34 97 415.68 97 415 97 C413.6962889 98.32512878 413.6962889 98.32512878 412.375 100.0625 C409.51151083 103.52662348 406.38041716 106.38383612 402.96875 109.296875 C400.14691558 111.73798573 397.54230416 114.26702302 395 117 C395 117.66 395 118.32 395 119 C394.44519958 119.22719223 393.89039917 119.45438446 393.31878662 119.6884613 C390.32244386 121.38323539 388.30008812 123.51507329 385.89941406 125.98461914 C385.40449463 126.49049057 384.9095752 126.996362 384.3996582 127.51756287 C383.32815501 128.61336464 382.2588166 129.71128647 381.19141388 130.81108284 C379.49837598 132.55290227 377.79700374 134.2861464 376.0927124 136.01695251 C371.24849805 140.93739299 366.41103536 145.86414761 361.60058594 150.81762695 C358.65447157 153.85009961 355.69138632 156.86506869 352.71672821 159.86953545 C351.58917293 161.01499901 350.46807259 162.16685518 349.3537674 163.32521248 C347.79116334 164.94832113 346.20780458 166.54819774 344.61816406 168.14477539 C343.72421936 169.06029678 342.83027466 169.97581818 341.90924072 170.91908264 C337.42464568 174.12681709 333.30830319 174.35665995 327.83984375 173.51171875 C326.88207031 173.23972656 325.92429687 172.96773438 324.9375 172.6875 C323.97714844 172.42324219 323.01679687 172.15898437 322.02734375 171.88671875 C321.02832031 171.59410156 320.02929688 171.30148437 319 171 C257.39872725 153.00650109 191.13087937 151.94631742 129.26953125 169.32421875 C128.06079346 169.66356445 128.06079346 169.66356445 126.82763672 170.00976562 C125.29443246 170.44451282 123.7632751 170.88658392 122.23486328 171.33789062 C110.12513969 174.84017151 110.12513969 174.84017151 105.48046875 173.00390625 C101.93364435 170.13851897 98.60937824 167.08556488 95.3125 163.9375 C94.60424072 163.2664624 93.89598145 162.5954248 93.16625977 161.90405273 C79.1218123 148.55406695 79.1218123 148.55406695 73.4375 141.875 C70.31323515 138.21409672 66.8310446 135.15056398 63.1953125 132.0078125 C60.44082055 129.48857965 58.09380464 126.72525272 55.6875 123.87890625 C53.56322362 121.51368185 51.2435566 119.51370058 48.7734375 117.51953125 C46.38119533 115.46979072 44.21271121 113.24348606 42 111 C39.23234856 108.20516498 36.46022752 105.41479796 33.6875 102.625 C32.96626953 101.89539063 32.24503906 101.16578125 31.50195312 100.4140625 C27.42097316 96.31478218 23.24379226 92.42083435 18.86010742 88.6484375 C16.02704111 86.13775844 13.43486236 83.41425174 10.8125 80.6875 C5.47093883 75.22551206 -0.17207732 70.54817781 -6.3203125 66.0234375 C-9 64 -9 64 -10.7421875 62.2265625 C-11.94583863 60.76728096 -11.94583863 60.76728096 -14 61 C-14.495 59.515 -14.495 59.515 -15 58 C-17.01508358 57.26676204 -17.01508358 57.26676204 -19 57 C-19.79479812 60.29091841 -20.58524337 63.58286842 -21.375 66.875 C-21.70757812 68.25171875 -21.70757812 68.25171875 -22.046875 69.65625 C-25.12464573 82.18784041 -25.12464573 82.18784041 -26 95 C-26.15219435 95.70259917 -26.30438869 96.40519835 -26.46119499 97.1290884 C-27.2091619 101.11447613 -27.3703374 105.07613798 -27.55838013 109.12208557 C-27.60061522 110.00644462 -27.64285031 110.89080367 -27.68636525 111.80196148 C-28.08829791 120.8862874 -28.11244647 129.95540895 -28.06591797 139.04663086 C-28.0607048 140.85112372 -28.05600079 142.65561812 -28.05175781 144.46011353 C-28.04193439 148.29958971 -28.02913301 152.13903947 -28.01403427 155.97849846 C-27.99067599 162.06195468 -27.97758298 168.14540794 -27.96633911 174.22889709 C-27.93314059 191.51177242 -27.89119275 208.79459704 -27.82861328 226.07739258 C-27.79400882 235.6579749 -27.77025727 245.23852139 -27.75840485 254.81915957 C-27.75035397 260.85534009 -27.72923121 266.89128235 -27.69819999 272.92738616 C-27.68210258 276.68866954 -27.67878102 280.44988621 -27.67897034 284.21120071 C-27.67656596 285.94249685 -27.66906881 287.67379537 -27.65584183 289.40504265 C-27.49741158 311.05851485 -34.17684346 328.908802 -43.95019531 347.93505859 C-49.07313401 358.01175988 -53.90300422 368.09531484 -57 379 C-57.33644531 380.09248047 -57.33644531 380.09248047 -57.6796875 381.20703125 C-62.0932003 397.50075317 -58.92773653 418.31217807 -51 433 C-50.37608031 434.27470022 -49.75802485 435.55228048 -49.14453125 436.83203125 C-45.25200196 444.90630914 -41.05246386 452.57810481 -36 460 C-35.47019531 460.79277344 -34.94039062 461.58554687 -34.39453125 462.40234375 C-26.40876674 474.10594637 -17.46585512 484.90707914 -7.72314453 495.17529297 C-5.79109037 497.22122281 -3.87754794 499.2836291 -1.96484375 501.34765625 C-0.56015903 502.85701582 0.84478656 504.36613266 2.25 505.875 C2.89928467 506.57665283 3.54856934 507.27830566 4.2175293 508.0012207 C10.16310109 514.34985653 16.61682191 519.96913192 23.375 525.4375 C24.62410156 526.45650391 24.62410156 526.45650391 25.8984375 527.49609375 C27.84036741 529.1939843 27.84036741 529.1939843 30 529 C30 529.66 30 530.32 30 531 C31.98768212 532.51839113 31.98768212 532.51839113 34.4375 534 C38.8952164 536.7904328 38.8952164 536.7904328 40 539 C41.26320638 539.75792383 42.56208972 540.45686417 43.875 541.125 C47.44755782 543.04225412 50.60314893 545.15080834 53.8125 547.625 C70.02601988 559.63250217 89.50386036 568.35972484 108.171875 575.83203125 C110.10159751 576.62897466 112.00821833 577.48367231 113.890625 578.38671875 C125.08824678 583.64077527 136.94777748 586.3058336 148.91894531 589.23779297 C151.45118768 589.86423201 153.97326992 590.51396559 156.4921875 591.19140625 C167.84924676 594.20185335 179.39024113 596.2272821 191 598 C191.68022217 598.10892578 192.36044434 598.21785156 193.0612793 598.33007812 C200.48980803 599.34835257 208.0158707 599.14988588 215.49829102 599.13037109 C217.90061971 599.12508121 220.30275565 599.13030269 222.70507812 599.13671875 C230.85793763 599.14068755 238.98641214 598.98007322 247.12890625 598.5546875 C247.90531967 598.51594513 248.68173309 598.47720276 249.48167419 598.43728638 C253.04099604 598.53264745 253.04099604 598.53264745 256 597 C258.72732051 596.50084321 261.44831324 596.04882594 264.1875 595.625 C274.60850985 593.95087975 284.85215329 591.94277082 295 589 C296.68460362 588.5405938 298.36952796 588.08236281 300.0546875 587.625 C320.40909533 581.99494511 340.12211987 574.49961723 359 565 C359.72848145 564.63438965 360.45696289 564.2687793 361.20751953 563.89208984 C374.84513604 556.99565078 388.58621996 549.69808776 400.51953125 540.05859375 C402 539 402 539 405 538 C405 537.34 405 536.68 405 536 C405.99 536 406.98 536 408 536 C409.70993434 534.3777546 411.37347684 532.70586575 413 531 C414.1446875 530.1646875 414.1446875 530.1646875 415.3125 529.3125 C415.869375 528.879375 416.42625 528.44625 417 528 C417 527.34 417 526.68 417 526 C417.57234375 525.92136719 418.1446875 525.84273437 418.734375 525.76171875 C421.7424604 524.75037969 423.09468986 523.12674488 425.25 520.8125 C428.06908126 517.88250407 430.80102716 515.27850811 434.125 512.9375 C437.78351919 510.31907672 440.53759771 507.30754124 443.421875 503.87109375 C445.4790053 501.43207045 447.71668566 499.22762374 450 497 C456.84383043 490.31025264 456.84383043 490.31025264 463 483 C463 482.34 463 481.68 463 481 C463.66 481 464.32 481 465 481 C467.96235695 477.36676311 467.96235695 477.36676311 469 473 C469.66 473 470.32 473 471 473 C473.1061537 470.62208454 474.86568221 468.22386298 476.5 465.5 C478 463 478 463 480.1875 460.375 C482.30333666 458.10045848 482.30333666 458.10045848 482 455 C482.66 455 483.32 455 484 455 C484.39832031 454.26394531 484.79664063 453.52789063 485.20703125 452.76953125 C486.00173828 451.30580078 486.00173828 451.30580078 486.8125 449.8125 C487.59560547 448.36810547 487.59560547 448.36810547 488.39453125 446.89453125 C489.36663637 445.14190378 490.38415647 443.41210883 491.48046875 441.734375 C495.38642605 434.70566007 497.49752099 426.61542394 500 419 C500.36996094 417.88367188 500.73992188 416.76734375 501.12109375 415.6171875 C503.56371282 407.22579759 503.51871124 398.66846277 503 390 C502.67 389.67 502.34 389.34 502 389 C501.70554578 387.17819693 501.4157893 385.35549181 501.15161133 383.52905273 C499.80644502 374.4886442 497.26765811 367.13161883 493 359 C492.35598144 357.71262957 491.71550793 356.42348113 491.078125 355.1328125 C488.43605067 349.79194206 485.77441583 344.4630975 483.00390625 339.1875 C477.49851284 328.62799797 477.49851284 328.62799797 476.45703125 322.55078125 C475.80795222 318.9281436 474.89670091 315.38071497 474 311.8125 C473.83346924 311.13461426 473.66693848 310.45672852 473.49536133 309.75830078 C472.78355421 306.90054783 472.05993233 304.14778562 470.9519043 301.41552734 C469.65455335 296.76050303 469.73351086 292.3912712 469.76953125 287.58203125 C469.77021858 286.06424324 469.77021858 286.06424324 469.7709198 284.51579285 C469.77393635 282.37160064 469.78180477 280.22741051 469.79418945 278.08325195 C469.81218611 274.86856935 469.81470054 271.65418035 469.81445312 268.43945312 C469.8193797 266.34114344 469.82521291 264.24283564 469.83203125 262.14453125 C469.83314407 261.21147659 469.8342569 260.27842194 469.83540344 259.3170929 C469.87104655 254.0643902 470.05211117 248.83891778 470.36293507 243.59648228 C471.08227978 231.41165162 471.14586997 219.25804584 471.1328125 207.0546875 C471.13348882 204.78760772 471.13446156 202.52052802 471.13571167 200.25344849 C471.13717501 195.52865907 471.13507961 190.80388873 471.13037109 186.07910156 C471.12469449 180.09930323 471.1279485 174.11955 471.13394356 168.13975334 C471.13760326 163.4635689 471.13638579 158.78739467 471.13381577 154.11120987 C471.13316031 151.91016764 471.13392501 149.7091244 471.13629532 147.50808334 C471.14609046 135.85494941 471.00497063 124.223758 470.55029297 112.57861328 C470.51104769 111.56544981 470.47180241 110.55228634 470.43136787 109.50842094 C469.91767005 97.52561131 468.86926371 85.66833909 466 74 C465.65458149 71.66842508 465.32205743 69.33491639 465 67 C464.35742164 63.32883528 463.68243487 59.66394644 463 56 C460.8990837 55.78023636 460.8990837 55.78023636 459.4140625 57.390625 Z " fill="#F9F9F7" transform="translate(287,118)"/>
<path d="M0 0 C8.4444887 -0.16289523 16.48113613 0.45795922 24.765625 2.12109375 C26.38404297 2.43046875 26.38404297 2.43046875 28.03515625 2.74609375 C35.70079895 4.34651263 42.64710313 6.87607387 49.765625 10.12109375 C49.765625 10.78109375 49.765625 11.44109375 49.765625 12.12109375 C50.301875 12.38921875 50.838125 12.65734375 51.390625 12.93359375 C54.18229167 14.32942708 56.97395833 15.72526042 59.765625 17.12109375 C59.765625 17.78109375 59.765625 18.44109375 59.765625 19.12109375 C60.48105469 19.34796875 61.19648438 19.57484375 61.93359375 19.80859375 C65.37055171 21.40144599 67.43046667 23.42244348 70.078125 26.12109375 C71.40263672 27.45140625 71.40263672 27.45140625 72.75390625 28.80859375 C74.765625 31.12109375 74.765625 31.12109375 74.765625 33.12109375 C75.405 33.36859375 76.044375 33.61609375 76.703125 33.87109375 C79.309926 35.45097314 79.05757578 36.28889686 79.765625 39.12109375 C80.36375 39.38921875 80.961875 39.65734375 81.578125 39.93359375 C85.04490445 41.81555974 86.01858056 44.62700487 87.765625 48.12109375 C87.765625 48.78109375 87.765625 49.44109375 87.765625 50.12109375 C88.425625 50.12109375 89.085625 50.12109375 89.765625 50.12109375 C93.41672562 59.58076354 95.88100465 68.41233437 96.078125 78.62109375 C96.11550781 79.88953125 96.15289062 81.15796875 96.19140625 82.46484375 C95.46764372 88.67990545 91.96378625 92.37794099 87.265625 96.24609375 C75.59189408 105.18912738 58.95281946 107.33267831 44.55541992 105.90136719 C42.34484498 105.60191298 40.1509509 105.25287458 37.953125 104.87109375 C36.78136719 104.66867065 36.78136719 104.66867065 35.5859375 104.4621582 C25.95428717 102.71176046 17.57813225 99.99164854 9.2890625 94.70703125 C5.66157256 92.42721559 1.88917293 90.43902156 -1.88671875 88.41796875 C-4.234375 87.12109375 -4.234375 87.12109375 -7.234375 85.12109375 C-7.234375 84.46109375 -7.234375 83.80109375 -7.234375 83.12109375 C-7.770625 82.89421875 -8.306875 82.66734375 -8.859375 82.43359375 C-14.34929288 79.39969177 -18.39512455 75.07122835 -22.38671875 70.31640625 C-23.61135553 68.86134099 -24.87486866 67.43807234 -26.17578125 66.05078125 C-36.6960404 54.23350385 -42.60961648 37.28160768 -42.546875 21.55859375 C-42.57104492 20.34139648 -42.57104492 20.34139648 -42.59570312 19.09960938 C-42.60007948 13.67730985 -41.92698051 9.86688429 -39.234375 5.12109375 C-35.53069407 1.52238368 -33.12866629 0.61114115 -28 0.51171875 C-26.79408203 0.47925049 -25.58816406 0.44678223 -24.34570312 0.41333008 C-23.07146484 0.39939209 -21.79722656 0.3854541 -20.484375 0.37109375 C-19.17919922 0.34362061 -17.87402344 0.31614746 -16.52929688 0.2878418 C-11.01944998 0.18017419 -5.50933662 0.13429285 0 0 Z " fill="#F8F8F6" transform="translate(346.234375,464.87890625)"/>
<path d="M0 0 C1.21555573 -0.00761353 2.43111145 -0.01522705 3.6835022 -0.02307129 C6.23315386 -0.03380934 8.78284928 -0.03675127 11.33251953 -0.03222656 C15.23673697 -0.03124745 19.13903089 -0.07308628 23.04296875 -0.1171875 C25.52864175 -0.12239012 28.01432155 -0.12508277 30.5 -0.125 C31.66461761 -0.14139526 32.82923523 -0.15779053 34.02914429 -0.17468262 C42.03849843 -0.10600871 42.03849843 -0.10600871 45.99853516 2.69335938 C52.14532027 11.89976954 51.04398082 24.99187874 49.546875 35.63476562 C46.64133427 49.6732711 37.26788806 63.85368025 26.8515625 73.46875 C25.6391857 74.67302629 24.43111785 75.88165046 23.2265625 77.09375 C22.1015625 78.21875 20.9765625 79.34375 19.8515625 80.46875 C19.32820312 81.03335938 18.80484375 81.59796875 18.265625 82.1796875 C16.8515625 83.46875 16.8515625 83.46875 14.8515625 83.46875 C14.8515625 84.12875 14.8515625 84.78875 14.8515625 85.46875 C12.27657747 87.17433797 9.71465232 88.7477726 7.0390625 90.28125 C6.25587646 90.73193848 5.47269043 91.18262695 4.66577148 91.64697266 C-15.42525114 103.08910303 -39.43404911 109.15437871 -62.47265625 103.53125 C-71.84531513 100.83946033 -80.93347702 96.02128519 -86.1484375 87.46875 C-88.17015443 81.50468505 -88.67527316 75.75402194 -88.1484375 69.46875 C-87.6534375 68.97375 -87.6534375 68.97375 -87.1484375 68.46875 C-87.04144531 67.45941406 -86.93445313 66.45007813 -86.82421875 65.41015625 C-86.04240454 60.85032656 -84.46451724 57.4663903 -82.3359375 53.40625 C-81.99240234 52.72498047 -81.64886719 52.04371094 -81.29492188 51.34179688 C-79.16788816 47.1874965 -76.93757773 43.21683991 -74.1484375 39.46875 C-73.4884375 39.46875 -72.8284375 39.46875 -72.1484375 39.46875 C-72.0659375 38.89125 -71.9834375 38.31375 -71.8984375 37.71875 C-70.93045963 34.8148164 -69.46149466 33.43134396 -67.1484375 31.46875 C-66.4884375 31.46875 -65.8284375 31.46875 -65.1484375 31.46875 C-64.8803125 30.829375 -64.6121875 30.19 -64.3359375 29.53125 C-63.1484375 27.46875 -63.1484375 27.46875 -60.1484375 26.46875 C-59.89578125 25.89125 -59.643125 25.31375 -59.3828125 24.71875 C-57.53058344 21.342535 -54.51137645 19.59120837 -51.3984375 17.46875 C-50.79 17.04335938 -50.1815625 16.61796875 -49.5546875 16.1796875 C-48.34029697 15.33376589 -47.12129909 14.49441879 -45.89770508 13.66186523 C-44.29003854 12.5653312 -42.70067552 11.44208738 -41.11328125 10.31640625 C-37.95905588 8.35072957 -34.97043007 7.11876568 -31.4609375 5.90625 C-30.34332031 5.51308594 -29.22570312 5.11992187 -28.07421875 4.71484375 C-26.76728366 4.29428935 -25.45852089 3.87939199 -24.1484375 3.46875 C-23.38040298 3.21746841 -22.61236847 2.96618683 -21.82106018 2.70729065 C-14.46887206 0.47823529 -7.6537339 0.00133763 0 0 Z " fill="#FAFAF8" transform="translate(663.1484375,465.53125)"/>
<path d="M0 0 C1.32999099 0.51979464 2.6466604 1.07693008 3.9375 1.6875 C8.08930207 3.46684375 9.93618604 2.71139042 14.0625 1.2890625 C14.825625 1.02867187 15.58875 0.76828125 16.375 0.5 C17.14585937 0.23445312 17.91671875 -0.03109375 18.7109375 -0.3046875 C21.79334124 -1.24098079 24.8084927 -1.60106159 28 -2 C28.33 -2.33 28.66 -2.66 29 -3 C38.55093728 -3.86978763 50.583143 -3.28229933 58.8125 2.125 C61.97619048 4.83673469 61.97619048 4.83673469 62.4375 8 C62.39391315 13.29580279 58.99600776 16.89407226 56 21 C55.525625 21.886875 55.05125 22.77375 54.5625 23.6875 C52.65460266 26.51118807 50.38903919 28.3740015 47.765625 30.5234375 C45.7966306 32.12566557 45.7966306 32.12566557 43.375 34.625 C41.03336119 36.96663881 38.67486638 39.04807048 36 41 C35.34 41 34.68 41 34 41 C34 41.66 34 42.32 34 43 C32.68 43.33 31.36 43.66 30 44 C30 44.66 30 45.32 30 46 C20.38764928 50.77096528 10.98824094 53.28117751 0.25 51.3125 C-0.8225 50.879375 -1.895 50.44625 -3 50 C-3.73089844 49.76539063 -4.46179688 49.53078125 -5.21484375 49.2890625 C-12.87428279 46.65121461 -18.74293503 42.04368334 -25 37 C-25.63292969 36.49855469 -26.26585937 35.99710938 -26.91796875 35.48046875 C-34.72768835 29.15640275 -42.5770538 20.62703618 -46 11 C-46.0625 7.375 -46.0625 7.375 -45 4 C-40.60320255 -0.39679745 -35.62881856 -0.80437365 -29.609375 -1.60546875 C-19.71278034 -3.10181016 -10.05142558 -2.31728901 0 0 Z " fill="#F5F6F4" transform="translate(500,600)"/>
<path d="M0 0 C0 3 0 3 -2.3359375 5.69921875 C-3.34119508 6.70314662 -4.35458968 7.6989775 -5.375 8.6875 C-5.88289062 9.19861328 -6.39078125 9.70972656 -6.9140625 10.23632812 C-10.73300859 14 -10.73300859 14 -13 14 C-13 13.34 -13 12.68 -13 12 C-12.34 12 -11.68 12 -11 12 C-10.731875 11.360625 -10.46375 10.72125 -10.1875 10.0625 C-9 8 -9 8 -6 7 C-5.690625 6.38125 -5.38125 5.7625 -5.0625 5.125 C-3.79701313 2.59402625 -2.32727163 1.55151442 0 0 Z " fill="#AAAAAA" transform="translate(609,485)"/>
<path d="M0 0 C0.66 0.99 1.32 1.98 2 3 C1.2575 3.53625 0.515 4.0725 -0.25 4.625 C-3.17774698 7.15350875 -4.91556474 9.7655315 -7 13 C-7.99 13.495 -7.99 13.495 -9 14 C-8.10870633 8.20659113 -4.16559102 3.8680488 0 0 Z " fill="#B6B6B6" transform="translate(234,121)"/>
<path d="M0 0 C0.99 0.66 1.98 1.32 3 2 C0.69 4.31 -1.62 6.62 -4 9 C-4.33 7.68 -4.66 6.36 -5 5 C-2.5625 2.25 -2.5625 2.25 0 0 Z " fill="#BABAB9" transform="translate(659,254)"/>
<path d="M0 0 C0.99 0.33 1.98 0.66 3 1 C0.36 3.64 -2.28 6.28 -5 9 C-5.66 8.34 -6.32 7.68 -7 7 C-4.69 4.69 -2.38 2.38 0 0 Z " fill="#CDCDCB" transform="translate(651,263)"/>
<path d="M0 0 C0 3 0 3 -1.75 4.82421875 C-2.4925 5.43910156 -3.235 6.05398437 -4 6.6875 C-4.7425 7.31011719 -5.485 7.93273437 -6.25 8.57421875 C-6.8275 9.04472656 -7.405 9.51523438 -8 10 C-8.66 9.67 -9.32 9.34 -10 9 C-6.7 6.03 -3.4 3.06 0 0 Z " fill="#C0C0C0" transform="translate(698,142)"/>
<path d="M0 0 C0.66 0.33 1.32 0.66 2 1 C0.93283928 2.20205464 -0.15438337 3.38632333 -1.25 4.5625 C-2.15492188 5.55443359 -2.15492188 5.55443359 -3.078125 6.56640625 C-5 8 -5 8 -7.234375 7.71484375 C-7.81703125 7.47894531 -8.3996875 7.24304688 -9 7 C-8.01 7 -7.02 7 -6 7 C-5.7525 6.401875 -5.505 5.80375 -5.25 5.1875 C-3.83629988 2.71352479 -2.34944617 1.56629745 0 0 Z " fill="#AFAFAF" transform="translate(701,647)"/>
<path d="M0 0 C3.2578125 0.4609375 3.2578125 0.4609375 7.125 1.375 C8.40632812 1.67148437 9.68765625 1.96796875 11.0078125 2.2734375 C12.48894531 2.63308594 12.48894531 2.63308594 14 3 C8.14509532 4.57052164 3.68383234 4.16526946 -2 2 C-1.34 1.34 -0.68 0.68 0 0 Z " fill="#B3B3B3" transform="translate(601,566)"/>
<path d="M0 0 C0.33 0 0.66 0 1 0 C0.88590407 1.45922693 0.75834456 2.91740598 0.625 4.375 C0.55539062 5.18710938 0.48578125 5.99921875 0.4140625 6.8359375 C0 9 0 9 -2 11 C-2.33 8.69 -2.66 6.38 -3 4 C-2.01 3.67 -1.02 3.34 0 3 C0 2.01 0 1.02 0 0 Z " fill="#9E9E9E" transform="translate(267,175)"/>
<path d="M0 0 C1.62723299 0.45034123 3.25173664 0.91055354 4.875 1.375 C5.77992188 1.63023437 6.68484375 1.88546875 7.6171875 2.1484375 C10 3 10 3 12 5 C8.1538875 5.21977786 5.44162553 4.76732122 2 3 C1.34 2.01 0.68 1.02 0 0 Z " fill="#969696" transform="translate(388,691)"/>
<path d="M0 0 C0.33 0.99 0.66 1.98 1 3 C-1.25 5.5625 -1.25 5.5625 -4 8 C-6.171875 7.65234375 -6.171875 7.65234375 -8 7 C-7.50628906 6.66226563 -7.01257813 6.32453125 -6.50390625 5.9765625 C-5.86324219 5.53054688 -5.22257813 5.08453125 -4.5625 4.625 C-3.92441406 4.18414063 -3.28632812 3.74328125 -2.62890625 3.2890625 C-0.86259072 2.07839147 -0.86259072 2.07839147 0 0 Z " fill="#B6B6B5" transform="translate(725,626)"/>
<path d="M0 0 C0.99 0.66 1.98 1.32 3 2 C1.35 3.65 -0.3 5.3 -2 7 C-2 3.89448334 -1.4606285 2.64738916 0 0 Z " fill="#DADAD9" transform="translate(801,623)"/>
</svg>
